<svg width="22" height="14" viewBox="0 0 22 14" fill="none" xmlns="http://www.w3.org/2000/svg">
<path d="M15.707 13.707C15.5184 13.8892 15.2658 13.99 15.0036 13.9877C14.7414 13.9854 14.4906 13.8803 14.3052 13.6949C14.1198 13.5095 14.0146 13.2586 14.0123 12.9964C14.01 12.7342 14.1108 12.4816 14.293 12.293L18.586 8.00004H1C0.734784 8.00004 0.48043 7.89468 0.292893 7.70715C0.105357 7.51961 0 7.26526 0 7.00004C0 6.73482 0.105357 6.48047 0.292893 6.29293C0.48043 6.1054 0.734784 6.00004 1 6.00004H18.586L14.293 1.70704C14.1108 1.51844 14.01 1.26584 14.0123 1.00364C14.0146 0.741443 14.1198 0.490631 14.3052 0.305223C14.4906 0.119815 14.7414 0.0146453 15.0036 0.0123669C15.2658 0.0100885 15.5184 0.110883 15.707 0.293041L21.707 6.29304C21.8945 6.48057 21.9998 6.73488 21.9998 7.00004C21.9998 7.26521 21.8945 7.51951 21.707 7.70704L15.707 13.707Z" />
</svg>
