<svg width="20" height="18" viewBox="0 0 20 18" fill="none" xmlns="http://www.w3.org/2000/svg">
<path d="M17.9506 16.4116C17.9684 17.0954 17.5688 17.6973 16.9605 17.8947C16.8895 17.9187 16.8229 17.9428 16.7519 17.9717H16.3967C16.1392 17.8273 15.8417 17.7261 15.6286 17.5287C15.1535 17.0857 15.0647 16.3394 15.3666 15.752C15.6641 15.1597 16.2901 14.8564 16.8939 15.0153C17.4933 15.1645 17.9329 15.7424 17.9506 16.4116Z" fill="#747474"/>
<path d="M7.80105 16.5024C7.7833 17.1477 7.38815 17.7062 6.81541 17.894C6.73993 17.9181 6.66001 17.9469 6.58454 17.971H6.27375C5.88748 17.8651 5.53673 17.6966 5.29698 17.321C4.95511 16.7817 4.95955 16.0835 5.31918 15.5683C5.68325 15.0483 6.30038 14.8412 6.86425 15.0483C7.43255 15.2602 7.81881 15.8572 7.80105 16.5024Z" fill="#747474"/>
<path d="M19.2776 3.33682C18.6116 3.31275 17.9412 3.30793 17.2752 3.32238H5.47854C5.23435 2.46049 4.9946 1.59859 4.75041 0.741516C4.59945 0.202231 4.34638 0.00481504 3.82248 0C3.39181 0 2.96559 0 2.53492 0C1.97994 0 1.42496 0 0.869975 0C0.541426 0 0.275035 0.130006 0.106321 0.438169C-0.19115 0.991898 0.168478 1.68526 0.776738 1.69971C1.56259 1.71415 2.34401 1.70934 3.12986 1.69971C3.31633 1.69971 3.39625 1.75267 3.44953 1.95009C4.38634 5.28691 5.32759 8.62374 6.26884 11.9606C6.45087 12.601 6.66398 12.7791 7.27668 12.7791C10.1937 12.7791 13.1106 12.7791 16.0232 12.7791C16.5826 12.7791 16.7913 12.6298 17.0088 12.0761C17.7858 10.0779 18.5583 8.08445 19.3353 6.08621C19.5351 5.56619 19.7482 5.05579 19.9347 4.53095C20.1434 3.94352 19.8326 3.35608 19.2776 3.33682ZM17.9678 5.20987C17.2353 7.10218 16.4983 8.99449 15.7701 10.8916C15.708 11.0505 15.6236 11.0794 15.4815 11.0746C12.9597 11.0698 10.4334 11.0698 7.91158 11.0746C7.72067 11.0746 7.64519 11.012 7.59191 10.8146C7.05025 8.87893 6.50415 6.94329 5.95805 5.00764H16.5915C16.6359 5.01727 16.6803 5.01727 16.7291 5.01727C17.1509 5.0269 17.5683 5.01727 18.0211 5.01727C17.9945 5.11839 17.9856 5.16654 17.9678 5.20987Z" fill="#747474"/>
</svg>
