<svg width="12" height="12" viewBox="0 0 12 12" fill="none" xmlns="http://www.w3.org/2000/svg">
<path d="M0.862923 10.1953L5.05826 5.99997L0.862923 1.80464C0.741484 1.6789 0.674288 1.5105 0.675806 1.33571C0.677325 1.16091 0.747438 0.993699 0.871044 0.870094C0.994649 0.746488 1.16186 0.676376 1.33666 0.674857C1.51145 0.673338 1.67985 0.740534 1.80559 0.861973L6.00092 5.05731L10.1963 0.861973C10.2578 0.798299 10.3313 0.747511 10.4127 0.712572C10.494 0.677633 10.5815 0.659242 10.67 0.658472C10.7585 0.657703 10.8463 0.674571 10.9282 0.708091C11.0102 0.741612 11.0846 0.791114 11.1472 0.853709C11.2098 0.916304 11.2593 0.990739 11.2928 1.07267C11.3263 1.1546 11.3432 1.24239 11.3424 1.33091C11.3417 1.41943 11.3233 1.50691 11.2883 1.58824C11.2534 1.66958 11.2026 1.74314 11.1389 1.80464L6.94359 5.99997L11.1389 10.1953C11.2026 10.2568 11.2534 10.3304 11.2883 10.4117C11.3233 10.493 11.3417 10.5805 11.3424 10.669C11.3432 10.7576 11.3263 10.8453 11.2928 10.9273C11.2593 11.0092 11.2098 11.0836 11.1472 11.1462C11.0846 11.2088 11.0102 11.2583 10.9282 11.2919C10.8463 11.3254 10.7585 11.3422 10.67 11.3415C10.5815 11.3407 10.494 11.3223 10.4127 11.2874C10.3313 11.2524 10.2578 11.2016 10.1963 11.138L6.00092 6.94264L1.80559 11.138C1.67985 11.2594 1.51145 11.3266 1.33666 11.3251C1.16186 11.3236 0.994649 11.2535 0.871044 11.1299C0.747438 11.0062 0.677325 10.839 0.675806 10.6642C0.674288 10.4894 0.741484 10.321 0.862923 10.1953Z" />
</svg>
