<svg width="12" height="12" viewBox="0 0 12 12" fill="none" xmlns="http://www.w3.org/2000/svg">
<path d="M10.7076 2.70696L7.41457 5.99996L10.7076 9.29296C10.8031 9.38521 10.8793 9.49555 10.9317 9.61755C10.9841 9.73956 11.0117 9.87078 11.0128 10.0036C11.014 10.1363 10.9887 10.268 10.9384 10.3909C10.8881 10.5138 10.8139 10.6255 10.72 10.7194C10.6261 10.8132 10.5144 10.8875 10.3915 10.9378C10.2686 10.9881 10.1369 11.0134 10.0042 11.0122C9.87139 11.0111 9.74017 10.9835 9.61817 10.9311C9.49616 10.8787 9.38582 10.8025 9.29357 10.707L6.00057 7.41396L2.70757 10.707C2.61532 10.8025 2.50498 10.8787 2.38297 10.9311C2.26097 10.9835 2.12975 11.0111 1.99697 11.0122C1.86419 11.0134 1.73251 10.9881 1.60962 10.9378C1.48672 10.8875 1.37507 10.8132 1.28117 10.7194C1.18728 10.6255 1.11303 10.5138 1.06275 10.3909C1.01247 10.268 0.987165 10.1363 0.988319 10.0036C0.989473 9.87078 1.01706 9.73956 1.06947 9.61755C1.12188 9.49555 1.19806 9.38521 1.29357 9.29296L4.58657 5.99996L1.29357 2.70696C1.19806 2.61471 1.12188 2.50437 1.06947 2.38236C1.01706 2.26036 0.989473 2.12914 0.988319 1.99636C0.987165 1.86358 1.01247 1.7319 1.06275 1.60901C1.11303 1.48611 1.18728 1.37446 1.28117 1.28056C1.37507 1.18667 1.48672 1.11242 1.60962 1.06214C1.73251 1.01186 1.86419 0.986555 1.99697 0.987709C2.12975 0.988862 2.26097 1.01645 2.38297 1.06886C2.50498 1.12127 2.61532 1.19745 2.70757 1.29296L6.00057 4.58596L9.29357 1.29296C9.38582 1.19745 9.49616 1.12127 9.61817 1.06886C9.74017 1.01645 9.87139 0.988862 10.0042 0.987709C10.1369 0.986555 10.2686 1.01186 10.3915 1.06214C10.5144 1.11242 10.6261 1.18667 10.72 1.28056C10.8139 1.37446 10.8881 1.48611 10.9384 1.60901C10.9887 1.7319 11.014 1.86358 11.0128 1.99636C11.0117 2.12914 10.9841 2.26036 10.9317 2.38236C10.8793 2.50437 10.8031 2.61471 10.7076 2.70696Z" />
</svg>
