<svg width="26" height="26" viewBox="0 0 26 26" fill="none" xmlns="http://www.w3.org/2000/svg">
<path d="M13 0.166626C10.4618 0.166626 7.98064 0.919288 5.87021 2.32943C3.75978 3.73958 2.1149 5.74387 1.14357 8.08886C0.172248 10.4338 -0.0818953 13.0142 0.413282 15.5036C0.908459 17.993 2.13072 20.2797 3.92549 22.0745C5.72026 23.8693 8.00694 25.0915 10.4964 25.5867C12.9858 26.0819 15.5661 25.8277 17.9111 24.8564C20.2561 23.8851 22.2604 22.2402 23.6706 20.1298C25.0807 18.0193 25.8334 15.5382 25.8334 13C25.8293 9.59758 24.476 6.3357 22.0701 3.92986C19.6643 1.52401 16.4024 0.17064 13 0.166626ZM13 23.5C10.9233 23.5 8.89325 22.8841 7.16654 21.7304C5.43982 20.5766 4.09401 18.9368 3.29929 17.0181C2.50457 15.0995 2.29664 12.9883 2.70178 10.9515C3.10693 8.91471 4.10695 7.04379 5.5754 5.57534C7.04386 4.10689 8.91478 3.10686 10.9516 2.70171C12.9884 2.29657 15.0996 2.5045 17.0182 3.29922C18.9368 4.09394 20.5767 5.43976 21.7305 7.16647C22.8842 8.89319 23.5 10.9233 23.5 13C23.4969 15.7838 22.3897 18.4527 20.4212 20.4212C18.4528 22.3896 15.7839 23.4969 13 23.5ZM18.4915 9.15813L9.15819 18.4915C9.05057 18.6029 8.92183 18.6918 8.7795 18.7529C8.63716 18.8141 8.48407 18.8462 8.32916 18.8476C8.17425 18.8489 8.02063 18.8194 7.87725 18.7608C7.73387 18.7021 7.60361 18.6155 7.49406 18.5059C7.38452 18.3964 7.29789 18.2661 7.23923 18.1227C7.18057 17.9794 7.15105 17.8257 7.1524 17.6708C7.15375 17.5159 7.18593 17.3628 7.24707 17.2205C7.30822 17.0782 7.3971 16.9494 7.50853 16.8418L16.8419 7.50846C16.9495 7.39703 17.0782 7.30815 17.2206 7.24701C17.3629 7.18586 17.516 7.15368 17.6709 7.15233C17.8258 7.15099 17.9794 7.18051 18.1228 7.23917C18.2662 7.29783 18.3964 7.38446 18.506 7.494C18.6155 7.60354 18.7022 7.7338 18.7608 7.87718C18.8195 8.02056 18.849 8.17419 18.8477 8.32909C18.8463 8.484 18.8141 8.63709 18.753 8.77943C18.6918 8.92177 18.603 9.0505 18.4915 9.15813ZM6.58336 8.91663C6.58336 8.45514 6.72021 8.00401 6.9766 7.6203C7.23299 7.23658 7.5974 6.93751 8.02376 6.76091C8.45012 6.5843 8.91928 6.53809 9.3719 6.62813C9.82452 6.71816 10.2403 6.94039 10.5666 7.26671C10.8929 7.59303 11.1152 8.00879 11.2052 8.46142C11.2952 8.91404 11.249 9.38319 11.0724 9.80955C10.8958 10.2359 10.5967 10.6003 10.213 10.8567C9.82931 11.1131 9.37818 11.25 8.91669 11.25C8.29785 11.25 7.70436 11.0041 7.26678 10.5665C6.82919 10.129 6.58336 9.53547 6.58336 8.91663ZM19.4167 17.0833C19.4167 17.5448 19.2798 17.9959 19.0235 18.3796C18.7671 18.7633 18.4026 19.0624 17.9763 19.239C17.5499 19.4156 17.0808 19.4618 16.6281 19.3718C16.1755 19.2818 15.7598 19.0595 15.4334 18.7332C15.1071 18.4069 14.8849 17.9911 14.7949 17.5385C14.7048 17.0859 14.751 16.6167 14.9276 16.1904C15.1042 15.764 15.4033 15.3996 15.787 15.1432C16.1707 14.8868 16.6219 14.75 17.0834 14.75C17.7022 14.75 18.2957 14.9958 18.7333 15.4334C19.1709 15.871 19.4167 16.4645 19.4167 17.0833Z" />
</svg>
