<svg width="12" height="14" viewBox="0 0 12 14" fill="none" xmlns="http://www.w3.org/2000/svg">
<path d="M0.666667 12.3334H11.3333C11.5101 12.3334 11.6797 12.4036 11.8047 12.5286C11.9298 12.6537 12 12.8232 12 13C12 13.1769 11.9298 13.3464 11.8047 13.4714C11.6797 13.5965 11.5101 13.6667 11.3333 13.6667H0.666667C0.489856 13.6667 0.320286 13.5965 0.195262 13.4714C0.0702379 13.3464 0 13.1769 0 13C0 12.8232 0.0702379 12.6537 0.195262 12.5286C0.320286 12.4036 0.489856 12.3334 0.666667 12.3334ZM6 0.333374C5.82319 0.333374 5.65362 0.403612 5.5286 0.528636C5.40357 0.65366 5.33333 0.82323 5.33333 1.00004V8.72404L3.80467 7.19537C3.74317 7.1317 3.66961 7.08091 3.58827 7.04597C3.50693 7.01103 3.41945 6.99264 3.33093 6.99187C3.24241 6.9911 3.15463 7.00797 3.0727 7.04149C2.99077 7.07501 2.91633 7.12452 2.85374 7.18711C2.79114 7.24971 2.74164 7.32414 2.70812 7.40607C2.6746 7.488 2.65773 7.57579 2.6585 7.66431C2.65927 7.75283 2.67766 7.84031 2.7126 7.92164C2.74754 8.00298 2.79833 8.07654 2.862 8.13804L5.52867 10.8047C5.59073 10.8665 5.66436 10.9154 5.74533 10.9487C5.82596 10.9826 5.91254 11 6 11C6.08746 11 6.17404 10.9826 6.25467 10.9487C6.33564 10.9154 6.40927 10.8665 6.47133 10.8047L9.138 8.13804C9.25944 8.01231 9.32664 7.8439 9.32512 7.66911C9.3236 7.49431 9.25348 7.3271 9.12988 7.2035C9.00627 7.07989 8.83907 7.00978 8.66427 7.00826C8.48947 7.00674 8.32107 7.07394 8.19533 7.19537L6.66667 8.72404V1.00004C6.66667 0.82323 6.59643 0.65366 6.4714 0.528636C6.34638 0.403612 6.17681 0.333374 6 0.333374Z" />
</svg>
