<svg width="20" height="22" viewBox="0 0 20 22" fill="none" xmlns="http://www.w3.org/2000/svg">
<path d="M5.70679 7.707L3.41379 10H14.9998C15.265 10 15.5194 10.1054 15.7069 10.2929C15.8944 10.4804 15.9998 10.7348 15.9998 11C15.9998 11.2652 15.8944 11.5196 15.7069 11.7071C15.5194 11.8946 15.265 12 14.9998 12H3.41379L5.70679 14.293C5.8023 14.3852 5.87848 14.4956 5.93089 14.6176C5.9833 14.7396 6.01088 14.8708 6.01204 15.0036C6.01319 15.1364 5.98789 15.2681 5.93761 15.391C5.88733 15.5138 5.81307 15.6255 5.71918 15.7194C5.62529 15.8133 5.51364 15.8875 5.39074 15.9378C5.26784 15.9881 5.13616 16.0134 5.00339 16.0123C4.87061 16.0111 4.73939 15.9835 4.61738 15.9311C4.49538 15.8787 4.38503 15.8025 4.29279 15.707L0.292786 11.707C0.105315 11.5195 0 11.2652 0 11C0 10.7348 0.105315 10.4805 0.292786 10.293L4.29279 6.293C4.38503 6.19749 4.49538 6.12131 4.61738 6.0689C4.73939 6.01649 4.87061 5.9889 5.00339 5.98775C5.13616 5.9866 5.26784 6.0119 5.39074 6.06218C5.51364 6.11246 5.62529 6.18671 5.71918 6.2806C5.81307 6.3745 5.88733 6.48615 5.93761 6.60905C5.98789 6.73194 6.01319 6.86362 6.01204 6.9964C6.01088 7.12918 5.9833 7.2604 5.93089 7.3824C5.87848 7.50441 5.8023 7.61475 5.70679 7.707ZM18.9998 0H10.9998C10.7346 0 10.4802 0.105357 10.2927 0.292893C10.1051 0.48043 9.99979 0.734784 9.99979 1C9.99979 1.26522 10.1051 1.51957 10.2927 1.70711C10.4802 1.89464 10.7346 2 10.9998 2H17.9998V20H10.9998C10.7346 20 10.4802 20.1054 10.2927 20.2929C10.1051 20.4804 9.99979 20.7348 9.99979 21C9.99979 21.2652 10.1051 21.5196 10.2927 21.7071C10.4802 21.8946 10.7346 22 10.9998 22H18.9998C19.265 22 19.5194 21.8946 19.7069 21.7071C19.8944 21.5196 19.9998 21.2652 19.9998 21V1C19.9998 0.734784 19.8944 0.48043 19.7069 0.292893C19.5194 0.105357 19.265 0 18.9998 0Z" />
</svg>
