<svg width="22" height="26" viewBox="0 0 22 26" fill="none" xmlns="http://www.w3.org/2000/svg">
<path d="M21.5 5.99996C21.4988 5.69023 21.3755 5.39345 21.157 5.17396L16.4903 0.507298C16.3824 0.399467 16.2544 0.313851 16.1135 0.255298C15.9719 0.196311 15.82 0.166167 15.6667 0.166631H1.66667C1.35725 0.166631 1.0605 0.289548 0.841709 0.50834C0.622916 0.727132 0.5 1.02388 0.5 1.3333V24.6666C0.5 24.976 0.622916 25.2728 0.841709 25.4916C1.0605 25.7104 1.35725 25.8333 1.66667 25.8333H20.3333C20.6428 25.8333 20.9395 25.7104 21.1583 25.4916C21.3771 25.2728 21.5 24.976 21.5 24.6666V5.99996ZM19.1667 23.5H2.83333V2.49996H14.5V5.99996C14.5 6.30938 14.6229 6.60613 14.8417 6.82492C15.0605 7.04371 15.3572 7.16663 15.6667 7.16663H19.1667V23.5ZM15.6667 9.49996C15.9761 9.49996 16.2728 9.62288 16.4916 9.84167C16.7104 10.0605 16.8333 10.3572 16.8333 10.6666C16.8333 10.9761 16.7104 11.2728 16.4916 11.4916C16.2728 11.7104 15.9761 11.8333 15.6667 11.8333H6.33333C6.02391 11.8333 5.72717 11.7104 5.50838 11.4916C5.28958 11.2728 5.16667 10.9761 5.16667 10.6666C5.16667 10.3572 5.28958 10.0605 5.50838 9.84167C5.72717 9.62288 6.02391 9.49996 6.33333 9.49996H15.6667ZM5.16667 5.99996C5.16667 5.69055 5.28958 5.3938 5.50838 5.17501C5.72717 4.95621 6.02391 4.8333 6.33333 4.8333H11C11.3094 4.8333 11.6062 4.95621 11.825 5.17501C12.0437 5.3938 12.1667 5.69055 12.1667 5.99996C12.1667 6.30938 12.0437 6.60613 11.825 6.82492C11.6062 7.04371 11.3094 7.16663 11 7.16663H6.33333C6.02391 7.16663 5.72717 7.04371 5.50838 6.82492C5.28958 6.60613 5.16667 6.30938 5.16667 5.99996ZM16.8333 15.3333C16.8333 15.6427 16.7104 15.9395 16.4916 16.1583C16.2728 16.377 15.9761 16.5 15.6667 16.5H6.33333C6.02391 16.5 5.72717 16.377 5.50838 16.1583C5.28958 15.9395 5.16667 15.6427 5.16667 15.3333C5.16667 15.0239 5.28958 14.7271 5.50838 14.5083C5.72717 14.2895 6.02391 14.1666 6.33333 14.1666H15.6667C15.9761 14.1666 16.2728 14.2895 16.4916 14.5083C16.7104 14.7271 16.8333 15.0239 16.8333 15.3333ZM16.8333 20C16.8333 20.3094 16.7104 20.6061 16.4916 20.8249C16.2728 21.0437 15.9761 21.1666 15.6667 21.1666H6.33333C6.02391 21.1666 5.72717 21.0437 5.50838 20.8249C5.28958 20.6061 5.16667 20.3094 5.16667 20C5.16667 19.6905 5.28958 19.3938 5.50838 19.175C5.72717 18.9562 6.02391 18.8333 6.33333 18.8333H15.6667C15.9761 18.8333 16.2728 18.9562 16.4916 19.175C16.7104 19.3938 16.8333 19.6905 16.8333 20Z" />
</svg>
