<svg width="22" height="22" viewBox="0 0 22 22" fill="none" xmlns="http://www.w3.org/2000/svg">
<path d="M11 0C8.82441 0 6.69767 0.645139 4.88873 1.85383C3.07979 3.06253 1.66989 4.78049 0.83733 6.79048C0.00476617 8.80047 -0.213071 11.0122 0.211367 13.146C0.635804 15.2798 1.68345 17.2398 3.22183 18.7782C4.76021 20.3166 6.72022 21.3642 8.85401 21.7886C10.9878 22.2131 13.1995 21.9952 15.2095 21.1627C17.2195 20.3301 18.9375 18.9202 20.1462 17.1113C21.3549 15.3023 22 13.1756 22 11C21.9966 8.08367 20.8365 5.28778 18.7744 3.22563C16.7122 1.16347 13.9163 0.00344047 11 0ZM7.149 2.878C7.11029 3.66835 6.84163 4.4302 6.376 5.07C5.982 4.87 5.51601 4.613 4.998 4.313C5.64241 3.7339 6.36684 3.25061 7.149 2.878ZM5.183 17.855C3.65655 16.5631 2.60382 14.7997 2.191 12.843C5.8 11.618 7.34 11.433 7.94 11.433C7.83188 11.719 7.65172 11.9721 7.417 12.168C7.11767 12.4227 6.89361 12.7543 6.769 13.127C6.69791 13.4021 6.70723 13.6918 6.79586 13.9618C6.88449 14.2317 7.0487 14.4706 7.269 14.65C7.315 15.077 6.28601 16.412 5.605 17.296C5.465 17.476 5.324 17.67 5.183 17.855ZM11 20C9.55209 20 8.12585 19.6483 6.844 18.975C6.959 18.823 7.075 18.664 7.188 18.517C8.541 16.762 9.936 14.951 8.89701 13.517C9.24677 13.198 9.52568 12.8092 9.71568 12.3756C9.90568 11.942 10.0025 11.4734 10 11C10.0017 10.7648 9.9463 10.5327 9.83848 10.3237C9.73065 10.1146 9.57366 9.93493 9.381 9.8C8.918 9.473 7.986 8.811 2.01 10.792C2.04876 9.01503 2.61624 7.28994 3.64 5.837C4.37801 6.273 5.019 6.628 5.553 6.895C5.85578 7.04974 6.19554 7.11746 6.53451 7.09063C6.87347 7.06379 7.19835 6.94345 7.473 6.743C8.593 5.959 9.17301 3.943 9.186 2.184C10.7819 1.85456 12.4376 1.96904 13.973 2.515C10.758 3.888 10 5.653 10 7C10 10.034 12.017 10.268 13.1 10.394C14 10.499 14 10.499 14 11C13.984 11.8445 13.8054 12.6781 13.474 13.455C13.111 14.428 12.563 15.9 14.553 16.895C14.8826 17.0583 15.2462 17.1416 15.614 17.138C16.5456 17.0555 17.4477 16.7698 18.257 16.301C17.4241 17.4455 16.3327 18.3771 15.0716 19.0199C13.8105 19.6627 12.4155 19.9985 11 20ZM19.635 13.515C18.9585 13.7495 18.3003 14.0339 17.666 14.366C16.88 14.753 15.804 15.283 15.447 15.105C15.3307 15.0484 15.2185 14.9839 15.111 14.912C15.1652 14.6516 15.2445 14.397 15.348 14.152C15.7647 13.1526 15.986 12.0827 16 11C16 8.717 14.2 8.508 13.33 8.407C12.282 8.286 12 8.253 12 7C12 5.372 14.545 4.323 16.354 3.783C17.835 4.87116 18.9445 6.38933 19.5316 8.13078C20.1187 9.87222 20.1548 11.7523 19.635 13.515Z" />
</svg>
