<svg width="22" height="22" viewBox="0 0 22 22" fill="none" xmlns="http://www.w3.org/2000/svg">
<path d="M3 6C3.59334 6 4.17336 5.82405 4.66671 5.49441C5.16006 5.16477 5.54458 4.69623 5.77164 4.14805C5.9987 3.59987 6.05811 2.99667 5.94236 2.41473C5.8266 1.83279 5.54088 1.29824 5.12132 0.878681C4.70176 0.459123 4.16721 0.173401 3.58527 0.0576455C3.00333 -0.0581102 2.40013 0.00129986 1.85195 0.228363C1.30377 0.455426 0.835235 0.839943 0.505591 1.33329C0.175947 1.82664 0 2.40666 0 3C0 3.79565 0.31607 4.55871 0.87868 5.12132C1.44129 5.68393 2.20435 6 3 6ZM3 2C3.19778 2 3.39112 2.05865 3.55557 2.16853C3.72002 2.27841 3.84819 2.43459 3.92388 2.61732C3.99957 2.80004 4.01937 3.00111 3.98079 3.19509C3.9422 3.38907 3.84696 3.56726 3.70711 3.70711C3.56725 3.84696 3.38907 3.9422 3.19509 3.98079C3.00111 4.01937 2.80004 3.99957 2.61732 3.92388C2.43459 3.84819 2.27841 3.72002 2.16853 3.55557C2.05865 3.39112 2 3.19778 2 3C2 2.73478 2.10536 2.48043 2.29289 2.29289C2.48043 2.10536 2.73478 2 3 2ZM3 14C3.59334 14 4.17336 13.8241 4.66671 13.4944C5.16006 13.1648 5.54458 12.6962 5.77164 12.1481C5.9987 11.5999 6.05811 10.9967 5.94236 10.4147C5.8266 9.83279 5.54088 9.29824 5.12132 8.87868C4.70176 8.45912 4.16721 8.1734 3.58527 8.05764C3.00333 7.94189 2.40013 8.0013 1.85195 8.22836C1.30377 8.45543 0.835235 8.83994 0.505591 9.33329C0.175947 9.82664 0 10.4067 0 11C0 11.7957 0.31607 12.5587 0.87868 13.1213C1.44129 13.6839 2.20435 14 3 14ZM3 10C3.19778 10 3.39112 10.0587 3.55557 10.1685C3.72002 10.2784 3.84819 10.4346 3.92388 10.6173C3.99957 10.8 4.01937 11.0011 3.98079 11.1951C3.9422 11.3891 3.84696 11.5673 3.70711 11.7071C3.56725 11.847 3.38907 11.9422 3.19509 11.9808C3.00111 12.0194 2.80004 11.9996 2.61732 11.9239C2.43459 11.8482 2.27841 11.72 2.16853 11.5556C2.05865 11.3911 2 11.1978 2 11C2 10.7348 2.10536 10.4804 2.29289 10.2929C2.48043 10.1054 2.73478 10 3 10ZM3 22C3.59334 22 4.17336 21.8241 4.66671 21.4944C5.16006 21.1648 5.54458 20.6962 5.77164 20.1481C5.9987 19.5999 6.05811 18.9967 5.94236 18.4147C5.8266 17.8328 5.54088 17.2982 5.12132 16.8787C4.70176 16.4591 4.16721 16.1734 3.58527 16.0576C3.00333 15.9419 2.40013 16.0013 1.85195 16.2284C1.30377 16.4554 0.835235 16.8399 0.505591 17.3333C0.175947 17.8266 0 18.4067 0 19C0 19.7957 0.31607 20.5587 0.87868 21.1213C1.44129 21.6839 2.20435 22 3 22ZM3 18C3.19778 18 3.39112 18.0586 3.55557 18.1685C3.72002 18.2784 3.84819 18.4346 3.92388 18.6173C3.99957 18.8 4.01937 19.0011 3.98079 19.1951C3.9422 19.3891 3.84696 19.5673 3.70711 19.7071C3.56725 19.847 3.38907 19.9422 3.19509 19.9808C3.00111 20.0194 2.80004 19.9996 2.61732 19.9239C2.43459 19.8482 2.27841 19.72 2.16853 19.5556C2.05865 19.3911 2 19.1978 2 19C2 18.7348 2.10536 18.4804 2.29289 18.2929C2.48043 18.1054 2.73478 18 3 18ZM22 3C22 3.26522 21.8946 3.51957 21.7071 3.70711C21.5196 3.89464 21.2652 4 21 4H9C8.73478 4 8.48043 3.89464 8.29289 3.70711C8.10536 3.51957 8 3.26522 8 3C8 2.73478 8.10536 2.48043 8.29289 2.29289C8.48043 2.10536 8.73478 2 9 2H21C21.2652 2 21.5196 2.10536 21.7071 2.29289C21.8946 2.48043 22 2.73478 22 3ZM22 11C22 11.2652 21.8946 11.5196 21.7071 11.7071C21.5196 11.8946 21.2652 12 21 12H9C8.73478 12 8.48043 11.8946 8.29289 11.7071C8.10536 11.5196 8 11.2652 8 11C8 10.7348 8.10536 10.4804 8.29289 10.2929C8.48043 10.1054 8.73478 10 9 10H21C21.2652 10 21.5196 10.1054 21.7071 10.2929C21.8946 10.4804 22 10.7348 22 11ZM22 19C22 19.2652 21.8946 19.5196 21.7071 19.7071C21.5196 19.8946 21.2652 20 21 20H9C8.73478 20 8.48043 19.8946 8.29289 19.7071C8.10536 19.5196 8 19.2652 8 19C8 18.7348 8.10536 18.4804 8.29289 18.2929C8.48043 18.1054 8.73478 18 9 18H21C21.2652 18 21.5196 18.1054 21.7071 18.2929C21.8946 18.4804 22 18.7348 22 19Z"/>
</svg>
