<svg width="24" height="30" viewBox="0 0 24 30" fill="none" xmlns="http://www.w3.org/2000/svg">
<path d="M12 13.3333C13.3185 13.3333 14.6075 12.9423 15.7038 12.2098C16.8001 11.4773 17.6546 10.4361 18.1592 9.21789C18.6638 7.99972 18.7958 6.65927 18.5386 5.36607C18.2813 4.07286 17.6464 2.88497 16.714 1.95262C15.7817 1.02027 14.5938 0.385336 13.3006 0.128101C12.0074 -0.129134 10.667 0.00288856 9.44878 0.507473C8.2306 1.01206 7.18941 1.86654 6.45687 2.96287C5.72433 4.05919 5.33333 5.34813 5.33333 6.66667C5.33545 8.43413 6.03851 10.1286 7.28829 11.3784C8.53808 12.6282 10.2325 13.3312 12 13.3333ZM12 2.66667C12.7911 2.66667 13.5645 2.90126 14.2223 3.34079C14.8801 3.78032 15.3928 4.40503 15.6955 5.13593C15.9983 5.86684 16.0775 6.67111 15.9231 7.44703C15.7688 8.22295 15.3878 8.93569 14.8284 9.4951C14.269 10.0545 13.5563 10.4355 12.7804 10.5898C12.0044 10.7441 11.2002 10.6649 10.4693 10.3622C9.73836 10.0594 9.11365 9.54675 8.67412 8.88895C8.2346 8.23115 8 7.45779 8 6.66667C8 5.6058 8.42143 4.58839 9.17157 3.83824C9.92172 3.0881 10.9391 2.66667 12 2.66667ZM0 28V22.6667C0.00211714 20.8992 0.705176 19.2047 1.95496 17.955C3.20474 16.7052 4.89921 16.0021 6.66667 16H17.3333C19.1008 16.0021 20.7953 16.7052 22.045 17.955C23.2948 19.2047 23.9979 20.8992 24 22.6667V28C24 28.3536 23.8595 28.6928 23.6095 28.9428C23.3594 29.1929 23.0203 29.3333 22.6667 29.3333C22.313 29.3333 21.9739 29.1929 21.7239 28.9428C21.4738 28.6928 21.3333 28.3536 21.3333 28V22.6667C21.3333 21.6058 20.9119 20.5884 20.1618 19.8382C19.4116 19.0881 18.3942 18.6667 17.3333 18.6667H6.66667C5.6058 18.6667 4.58839 19.0881 3.83824 19.8382C3.08809 20.5884 2.66667 21.6058 2.66667 22.6667V28C2.66667 28.3536 2.52619 28.6928 2.27614 28.9428C2.02609 29.1929 1.68696 29.3333 1.33333 29.3333C0.979711 29.3333 0.640573 29.1929 0.390524 28.9428C0.140476 28.6928 0 28.3536 0 28Z" />
</svg>
