<svg width="22" height="22" viewBox="0 0 22 22" fill="none" xmlns="http://www.w3.org/2000/svg">
<path d="M0.537144 8.48807C0.484857 8.67452 0.487829 8.87214 0.5457 9.05693C0.60357 9.24173 0.713849 9.40575 0.863144 9.52907L5.66814 13.4921L4.15314 20.2821C4.10887 20.4799 4.1258 20.6866 4.20168 20.8746C4.27756 21.0627 4.40881 21.2232 4.57803 21.3349C4.74724 21.4466 4.94642 21.5043 5.14914 21.5002C5.35187 21.4961 5.54857 21.4305 5.71314 21.3121L11.0001 17.5091L16.2871 21.3091C16.4517 21.4275 16.6484 21.4931 16.8511 21.4972C17.0539 21.5013 17.253 21.4436 17.4223 21.3319C17.5915 21.2202 17.7227 21.0597 17.7986 20.8716C17.8745 20.6836 17.8914 20.4769 17.8471 20.2791L16.3321 13.4891L21.1371 9.52607C21.2865 9.40288 21.3969 9.23899 21.4549 9.05428C21.5129 8.86957 21.5161 8.67199 21.464 8.48552C21.4119 8.29906 21.3068 8.13172 21.1614 8.00384C21.0161 7.87595 20.8367 7.793 20.6451 7.76507L14.8281 6.91607L11.9001 1.05307C11.8077 0.898092 11.6767 0.769764 11.5198 0.680647C11.3629 0.591529 11.1856 0.544678 11.0051 0.544678C10.8247 0.544678 10.6474 0.591529 10.4905 0.680647C10.3336 0.769764 10.2025 0.898092 10.1101 1.05307L7.17214 6.91907L1.35514 7.76807C1.16377 7.79612 0.984641 7.87906 0.839454 8.00686C0.694267 8.13465 0.589256 8.3018 0.537144 8.48807ZM7.97814 8.82307C8.13757 8.79983 8.28902 8.73841 8.41961 8.64404C8.55019 8.54967 8.65604 8.42515 8.72814 8.28107L11.0001 3.73607L13.2721 8.28107C13.3442 8.42515 13.4501 8.54967 13.5807 8.64404C13.7113 8.73841 13.8627 8.79983 14.0221 8.82307L18.1221 9.42307L14.5861 12.3401C14.4439 12.4576 14.3369 12.6122 14.2771 12.7867C14.2173 12.9613 14.2069 13.149 14.2471 13.3291L15.3231 18.1551L11.5841 15.4651C11.414 15.3427 11.2097 15.2768 11.0001 15.2768C10.7906 15.2768 10.5863 15.3427 10.4161 15.4651L6.67714 18.1551L7.75314 13.3291C7.79338 13.149 7.78301 12.9613 7.72318 12.7867C7.66335 12.6122 7.55639 12.4576 7.41414 12.3401L3.87614 9.42107L7.97814 8.82307Z" fill="#FFD600"/>
</svg>
