<svg width="28" height="28" viewBox="0 0 28 28" fill="none" xmlns="http://www.w3.org/2000/svg">
<path d="M28 14C28 21.732 21.732 28 14 28C6.26801 28 0 21.732 0 14C0 6.26801 6.26801 0 14 0C21.732 0 28 6.26801 28 14Z" fill="#2CD657"/>
<path d="M13.374 19.1546C12.9314 19.5915 12.3338 19.8355 11.7119 19.8333C11.09 19.8311 10.4942 19.5829 10.0547 19.1429L7.47687 16.5651C6.82948 15.9177 6.84125 14.8701 7.51218 14.2462C8.1478 13.6342 9.16008 13.6577 9.77216 14.2698L11.7143 16.212L19.2829 8.64338C19.9185 8.00776 20.9426 8.00776 21.5782 8.64338L21.6253 8.69046C22.2609 9.32608 22.2609 10.3619 21.6135 10.9975L13.374 19.1546Z" fill="white"/>
</svg>
